<svg width="1728" height="126" viewBox="0 0 1728 126" fill="none" xmlns="http://www.w3.org/2000/svg">
<path d="M-126 126C5.31964 -46.492 77.4411 -37.4471 204 126H-126Z" fill="#89B5C3"/>
<path d="M204 126C335.32 -46.492 407.441 -37.4471 534 126H204Z" fill="#89B5C3"/>
<path d="M369 126C500.32 -46.492 572.441 -37.4471 699 126H369Z" fill="#89B5C3"/>
<path d="M534 126C665.32 -46.492 737.441 -37.4471 864 126H534Z" fill="#89B5C3"/>
<path d="M699 126C830.32 -46.492 902.441 -37.4471 1029 126H699Z" fill="#89B5C3"/>
<path d="M864 126C995.32 -46.492 1067.44 -37.4471 1194 126H864Z" fill="#89B5C3"/>
<path d="M1029 126C1160.32 -46.492 1232.44 -37.4471 1359 126H1029Z" fill="#89B5C3"/>
<path d="M1194 126C1325.32 -46.492 1397.44 -37.4471 1524 126H1194Z" fill="#89B5C3"/>
<path d="M1359 126C1490.32 -46.492 1562.44 -37.4471 1689 126H1359Z" fill="#89B5C3"/>
<path d="M1524 126C1655.32 -46.492 1727.44 -37.4471 1854 126H1524Z" fill="#89B5C3"/>
<path d="M39 126C170.32 -46.492 242.441 -37.4471 369 126H39Z" fill="#89B5C3"/>
</svg>
