<svg width="1728" height="126" viewBox="0 0 1728 126" fill="none" xmlns="http://www.w3.org/2000/svg">
<path d="M1854 2.28882e-05C1722.68 172.492 1650.56 163.447 1524 2.28882e-05L1854 2.28882e-05Z" fill="#89B5C3"/>
<path d="M1524 2.28882e-05C1392.68 172.492 1320.56 163.447 1194 2.28882e-05L1524 2.28882e-05Z" fill="#89B5C3"/>
<path d="M1359 2.28882e-05C1227.68 172.492 1155.56 163.447 1029 2.28882e-05L1359 2.28882e-05Z" fill="#89B5C3"/>
<path d="M1194 2.28882e-05C1062.68 172.492 990.559 163.447 864 2.28882e-05L1194 2.28882e-05Z" fill="#89B5C3"/>
<path d="M1029 2.28882e-05C897.68 172.492 825.559 163.447 699 2.28882e-05L1029 2.28882e-05Z" fill="#89B5C3"/>
<path d="M864 2.28882e-05C732.68 172.492 660.559 163.447 534 2.28882e-05L864 2.28882e-05Z" fill="#89B5C3"/>
<path d="M699 2.28882e-05C567.68 172.492 495.559 163.447 369 2.28882e-05L699 2.28882e-05Z" fill="#89B5C3"/>
<path d="M534 2.28882e-05C402.68 172.492 330.559 163.447 204 2.28882e-05L534 2.28882e-05Z" fill="#89B5C3"/>
<path d="M369 2.28882e-05C237.68 172.492 165.559 163.447 39 2.28882e-05L369 2.28882e-05Z" fill="#89B5C3"/>
<path d="M204 2.28882e-05C72.6804 172.492 0.558838 163.447 -126 2.28882e-05L204 2.28882e-05Z" fill="#89B5C3"/>
<path d="M1689 2.28882e-05C1557.68 172.492 1485.56 163.447 1359 2.28882e-05L1689 2.28882e-05Z" fill="#89B5C3"/>
</svg>
